<svg width="33" height="34" viewBox="0 0 33 34" fill="none" xmlns="http://www.w3.org/2000/svg">
<path d="M17.0415 1.32202L17.1235 1.32983L17.1675 1.33374H17.6548C18.2257 1.33374 18.5266 2.00463 18.1704 2.42261L18.0737 2.52319C16.0669 4.4029 14.7768 6.92287 14.4263 9.65112C14.0736 12.3956 14.6938 15.1769 16.1792 17.5115C17.6647 19.846 19.9216 21.5863 22.5571 22.4294C25.1928 23.2726 28.0412 23.1656 30.606 22.1267H30.6069C31.1526 21.9053 31.6979 22.4522 31.4702 22.9998C30.3817 25.6186 28.6024 27.8927 26.3228 29.5798C24.043 31.267 21.3476 32.3033 18.5249 32.5789C15.7024 32.8543 12.8583 32.3585 10.2954 31.1443C7.73248 29.93 5.54662 28.0432 3.97217 25.6843C2.39771 23.3254 1.49318 20.5825 1.35498 17.7498C1.21686 14.9171 1.8507 12.1003 3.18799 9.59937C4.52534 7.09839 6.51615 5.00665 8.94873 3.54858C11.3791 2.09189 14.1593 1.32195 16.9927 1.32007L17.0415 1.32202Z" stroke="#EBEBEB" stroke-width="2"/>
</svg>
