<svg width="33" height="34" viewBox="0 0 33 34" fill="none" xmlns="http://www.w3.org/2000/svg">
<path d="M17.0417 1.32202L17.1238 1.32983L17.1677 1.33374H17.655C18.2259 1.33374 18.5268 2.00463 18.1707 2.42261L18.074 2.52319C16.0672 4.4029 14.7771 6.92287 14.4265 9.65112C14.0739 12.3956 14.694 15.1769 16.1794 17.5115C17.665 19.846 19.9219 21.5863 22.5574 22.4294C25.193 23.2726 28.0414 23.1656 30.6062 22.1267H30.6072C31.1528 21.9053 31.6982 22.4522 31.4705 22.9998C30.382 25.6186 28.6027 27.8927 26.323 29.5798C24.0433 31.267 21.3479 32.3033 18.5251 32.5789C15.7026 32.8543 12.8585 32.3585 10.2957 31.1443C7.73273 29.93 5.54686 28.0432 3.97241 25.6843C2.39795 23.3254 1.49343 20.5825 1.35522 17.7498C1.2171 14.9171 1.85095 12.1003 3.18823 9.59937C4.52558 7.09839 6.51639 5.00665 8.94897 3.54858C11.3794 2.09189 14.1595 1.32195 16.9929 1.32007L17.0417 1.32202Z" stroke="#2B2D42" stroke-width="2"/>
</svg>
